/* XPM */
static char * mdedicator_xpm[] = {
"32 32 6 1",
" 	c None",
".	c #7F8389",
"+	c #7E8289",
"@	c #7E8288",
"#	c #7D8187",
"$	c #7F8388",
"           ..........           ",
"         ..............         ",
"       ..................       ",
"     ......................     ",
"    ......................+.    ",
"   ......................+ @.   ",
"   .. ..................+ @+.   ",
"  ...  ................+ @+...  ",
"  ...   ..............+ @+....  ",
" ....    ............+ @+...... ",
" ....     ..........+ @+....... ",
".....      ........+ @+.........",
".....       ......+ @+..........",
".....        ....+ @+...........",
".....         ..+ @+............",
".....          . @+.............",
".....         #@$+..............",
".....        @.@ ...............",
".....       @@@   ..............",
".....      @..     .............",
".....     @@@       ............",
" ....    @@.         .......... ",
" ....   #@.           ......... ",
"  ...  @@@             .......  ",
"  ... @@@               ......  ",
"   ..@@.                 ....   ",
"   ...@                   ...   ",
"    ........................    ",
"     ......................     ",
"       ..................       ",
"         ..............         ",
"           ..........           "};
